<svg width="32" height="32" viewBox="0 0 32 32" fill="none" xmlns="http://www.w3.org/2000/svg">
<rect width="32" height="32" fill="black"/>
<path d="M9.28977 25V6.09091H15.679C17.1624 6.09091 18.375 6.35866 19.3168 6.89418C20.2647 7.42353 20.9664 8.14062 21.4219 9.04545C21.8774 9.95028 22.1051 10.9598 22.1051 12.0739C22.1051 13.188 21.8774 14.2005 21.4219 15.1115C20.9725 16.0225 20.277 16.7488 19.3352 17.2905C18.3935 17.826 17.187 18.0938 15.7159 18.0938H11.1364V16.0625H15.642C16.6577 16.0625 17.4732 15.8871 18.0888 15.5362C18.7043 15.1854 19.1506 14.7114 19.4276 14.1143C19.7107 13.5111 19.8523 12.831 19.8523 12.0739C19.8523 11.3168 19.7107 10.6397 19.4276 10.0426C19.1506 9.44555 18.7012 8.97775 18.0795 8.6392C17.4579 8.29451 16.633 8.12216 15.6051 8.12216H11.5795V25H9.28977Z" fill="white"/>
</svg>
